<?xml version="1.0" encoding="UTF-8"?>
<svg version="1.1" xmlns="http://www.w3.org/2000/svg" width="314" height="308">
<path d="M0 0 C4.86037268 0.4456783 8.82127922 2.75802445 13.0703125 4.98046875 C14.24811279 5.5871489 14.24811279 5.5871489 15.44970703 6.20608521 C18.01122677 7.5273408 20.56810155 8.8573266 23.125 10.1875 C24.90320407 11.10690375 26.68168932 12.02576387 28.46044922 12.9440918 C32.85345331 15.21385812 37.2428279 17.49053536 41.63085938 19.76989746 C44.93970428 21.4879122 48.25103007 23.20111482 51.5625 24.9140625 C55.89761583 27.15804073 60.23090607 29.40548107 64.5625 31.65625 C70.81059693 34.90281017 77.06263753 38.1417177 83.31661987 41.37692261 C85.1195166 42.30966313 86.92218564 43.24284268 88.72485352 44.17602539 C95.29805118 47.5773131 101.87785939 50.96532985 108.46484375 54.33984375 C123.43313483 62.01275516 138.33753164 69.75124805 153 78 C153 79.32 153 80.64 153 82 C141.54101703 88.3474745 130.04450022 94.56237702 118.30004883 100.36669922 C112.97108578 103.00380861 107.68910949 105.71222425 102.4375 108.5 C93.37299614 113.3068004 84.25201667 118.00091114 75.125 122.6875 C72.06766651 124.25773108 69.01037686 125.8280475 65.953125 127.3984375 C65.19660141 127.78701431 64.44007782 128.17559113 63.66062927 128.57594299 C56.98948997 132.00340749 50.32422951 135.442139 43.66275024 138.88833618 C41.89132102 139.80406297 40.11888261 140.71783666 38.34643555 141.6315918 C33.07381331 144.35365016 27.81096913 147.09052058 22.58093262 149.89347839 C20.81964298 150.83699435 19.05559826 151.77536154 17.29150391 152.71362305 C15.10997103 153.87552988 12.93353577 155.04707634 10.76318359 156.22973633 C9.31613037 156.9977356 9.31613037 156.9977356 7.83984375 157.78125 C6.99800537 158.23564453 6.15616699 158.69003906 5.28881836 159.15820312 C3 160 3 160 -1 159 C-1 155.7 -1 152.4 -1 149 C-2.2375 149.680625 -3.475 150.36125 -4.75 151.0625 C-8.33924618 153.0365854 -8.71372952 153.07156762 -13 152 C-13.33 148.7 -13.66 145.4 -14 142 C-15.03640625 142.58910156 -16.0728125 143.17820313 -17.140625 143.78515625 C-18.51006118 144.54491194 -19.87987267 145.30399143 -21.25 146.0625 C-21.93191406 146.45244141 -22.61382812 146.84238281 -23.31640625 147.24414062 C-24.31220703 147.79038086 -24.31220703 147.79038086 -25.328125 148.34765625 C-25.9355957 148.68804932 -26.54306641 149.02844238 -27.16894531 149.37915039 C-29 150 -29 150 -33 149 C-33 104.78 -33 60.56 -33 15 C-28.5 13.875 -28.5 13.875 -25.328125 15.65234375 C-24.66425781 16.01650391 -24.00039062 16.38066406 -23.31640625 16.75585938 C-22.63449219 17.14580078 -21.95257813 17.53574219 -21.25 17.9375 C-20.55261719 18.32357422 -19.85523437 18.70964844 -19.13671875 19.10742188 C-17.4183988 20.06073637 -15.70836196 21.02895346 -14 22 C-13.67 18.37 -13.34 14.74 -13 11 C-8.71372952 9.92843238 -8.33924618 9.9634146 -4.75 11.9375 C-4.04359375 12.31777344 -3.3371875 12.69804688 -2.609375 13.08984375 C-2.07828125 13.39019531 -1.5471875 13.69054687 -1 14 C-1.01160156 13.07316406 -1.02320312 12.14632812 -1.03515625 11.19140625 C-1.04417969 9.99386719 -1.05320312 8.79632813 -1.0625 7.5625 C-1.07410156 6.36753906 -1.08570312 5.17257813 -1.09765625 3.94140625 C-1 1 -1 1 0 0 Z " fill="#B5E61D" transform="translate(104,67)"/>
<path d="M0 0 C4.88921271 1.45539355 9.22240058 3.57995002 13.6875 6 C23.03494272 10.99154576 32.44730978 15.84997872 41.875 20.6875 C44.93766379 22.26009784 48.00010671 23.83312547 51.0625 25.40625 C51.81991989 25.79528 52.57733978 26.18431 53.35771179 26.58512878 C64.06573825 32.08662249 74.75492499 37.62448788 85.4453125 43.16015625 C89.10841703 45.05654222 92.77287626 46.95030188 96.4375 48.84375 C111.30937499 56.52868231 126.16609565 64.2419755 141 72 C141 72.66 141 73.32 141 74 C139.939021 74.54301758 138.87804199 75.08603516 137.78491211 75.64550781 C112.67774051 88.48585085 112.67774051 88.48585085 87.65307617 101.48583984 C79.04118697 105.99268936 70.3959256 110.43392851 61.75 114.875 C50.9094281 120.44439332 40.07152872 126.0186751 29.25 131.625 C28.15469971 132.1921875 27.05939941 132.759375 25.9309082 133.34375 C18.75466907 137.06792384 11.61893717 140.8592761 4.52734375 144.7421875 C2 146 2 146 0 146 C0 143.36 0 140.72 0 138 C0.94504395 137.51756836 1.89008789 137.03513672 2.86376953 136.53808594 C24.55976123 125.51124598 24.55976123 125.51124598 46 114 C56.14606342 108.37898937 66.46302566 103.10841773 76.7895813 97.82958984 C88.66211803 91.75732404 100.43105697 85.53359536 112.08178711 79.04296875 C114.03320404 77.98194634 116.00773062 76.98183478 118 76 C118 75.01 118 74.02 118 73 C117.2972998 72.63874023 116.59459961 72.27748047 115.87060547 71.90527344 C104.01599024 65.80354822 92.16953926 59.7010466 80.5 53.25 C70.18091602 47.55335096 59.698691 42.19085142 49.20455933 36.82666016 C39.03392987 31.62534177 28.93721928 26.32041745 18.93505859 20.79980469 C12.6987136 17.36050788 6.40581512 14.11634249 0 11 C0 7.37 0 3.74 0 0 Z " fill="#FFFFFF" transform="translate(108,74)"/>
<path d="M0 0 C19.59484321 9.65856051 39.04031299 19.64774034 58.16137695 30.21411133 C68.61977542 35.95337141 79.25818578 41.34861282 89.88330078 46.77075195 C96.99059037 50.40079333 104.05991561 54.05552266 111 58 C107.98698305 60.38199306 104.88915188 62.2371259 101.50390625 64.046875 C100.40256348 64.63686279 99.3012207 65.22685059 98.16650391 65.8347168 C96.96526095 66.47331702 95.7639237 67.1117399 94.5625 67.75 C93.31164251 68.41764277 92.06082949 69.08536886 90.81005859 69.75317383 C81.34352562 74.79741277 71.82084428 79.72993211 62.28182983 84.63534546 C53.54786186 89.12872897 44.89376845 93.74691768 36.29077148 98.48608398 C28.64546939 102.68270936 20.92783973 106.73233677 13.1875 110.75 C12.58234558 111.06494415 11.97719116 111.37988831 11.35369873 111.70437622 C9.6472123 112.59179699 7.93888398 113.47567316 6.23046875 114.359375 C5.24457764 114.86952148 4.25868652 115.37966797 3.24291992 115.90527344 C1 117 1 117 0 117 C0 114.36 0 111.72 0 109 C9.96463016 103.33321883 19.99313609 97.81830086 30.13983154 92.48452759 C33.82248325 90.54818755 37.50071912 88.60348249 41.1796875 86.66015625 C41.91994171 86.26936386 42.66019592 85.87857147 43.42288208 85.47593689 C50.15934661 81.91881193 56.88814116 78.34752253 63.60681152 74.75689697 C65.30891294 73.84779738 67.01234053 72.94118213 68.71582031 72.03466797 C75.90968098 68.18609599 82.9802009 64.15734912 90 60 C88.65318548 55.95955645 86.17964261 55.19473798 82.58984375 53.3671875 C81.92354446 53.0181134 81.25724518 52.66903931 80.570755 52.30938721 C78.36415845 51.15574684 76.15085764 50.0156068 73.9375 48.875 C72.39560783 48.07120587 70.85427313 47.26634153 69.31347656 46.46044922 C66.12425232 44.79328996 62.93282289 43.13047097 59.73974609 41.47070312 C52.55417764 37.73093679 45.40179882 33.92882393 38.25 30.125 C37.59054382 29.77467712 36.93108765 29.42435425 36.25164795 29.06341553 C27.50069579 24.41463231 18.76653613 19.73623207 10.0625 15 C9.14436523 14.50129395 8.22623047 14.00258789 7.28027344 13.48876953 C6.45688477 13.03872559 5.63349609 12.58868164 4.78515625 12.125 C4.07238525 11.73570313 3.35961426 11.34640625 2.62524414 10.9453125 C1 10 1 10 0 9 C-0.07179964 7.48071962 -0.08392007 5.95832518 -0.0625 4.4375 C-0.05347656 3.61121094 -0.04445313 2.78492187 -0.03515625 1.93359375 C-0.02355469 1.29550781 -0.01195313 0.65742187 0 0 Z " fill="#FFFFFF" transform="translate(108,90)"/>
<path d="M0 0 C4.75 1.875 4.75 1.875 7 3 C7 5.97 7 8.94 7 12 C2.25 10.125 2.25 10.125 0 9 C0 6.03 0 3.06 0 0 Z " fill="#FFFFFF" transform="translate(96,84)"/>
<path d="M0 0 C0.43695709 5.33087655 0.43695709 5.33087655 0 8 C-2.40859879 10.02829372 -3.83044309 11 -7 11 C-7.43695709 5.66912345 -7.43695709 5.66912345 -7 3 C-4.59140121 0.97170628 -3.16955691 0 0 0 Z " fill="#FFFFFF" transform="translate(103,202)"/>
</svg>
